# xmcd
#
# Track frame offsets: 
#        150
#        25682
#        57710
#        69540
#        87957
#        122270
#        142880
#        170525
#        195295
#
# Disc length: 2869 seconds
#
# Revision: 10
# Processed by: cddbd v1.5.2PL0 Copyright (c) Steve Scherf et al.
# Submitted via: ExactAudioCopy v1.3
#
DISCID=700b3309
DTITLE=Various Artist - Naim - The Sampler
DYEAR=1999
DGENRE=Jazz
TTITLE0=Acoustic Mania - Birdland
TTITLE1=Charlie Haden And Chris Anderson - I Hear Rhapsody
TTITLE2=Gary Boyle - Grumble
TTITLE3=Patrick Noland - Beyond A Trance
TTITLE4=Ted Sirota's Rebel Souls - Wait
TTITLE5=Antonio Forcione - Heartbeat
TTITLE6=Union - Late Late Blues
TTITLE7=SFX - Three-Two-Five
TTITLE8=Antonio Forcione - Dedicato
EXTD=
EXTT0=
EXTT1=
EXTT2=
EXTT3=
EXTT4=
EXTT5=
EXTT6=
EXTT7=
EXTT8=
PLAYORDER=
